# 3ds Max Wavefront OBJ Exporter v0.97b - (c)2007 guruware
# File Created: 09.11.2019 12:29:52

mtllib Genastre4.mtl

#
# object astre4
#

v  -5.1669 31.9352 5.1669
v  4.6882 35.5317 2.5391
v  -0.1959 30.5578 -6.8740
v  14.3763 28.3617 -0.1018
v  8.9891 31.3794 -9.1313
v  5.4217 29.2497 -14.7898
v  25.0659 26.2959 -4.4025
v  20.1831 26.6189 -10.4789
v  13.4645 22.9630 -15.9005
v  10.4988 22.3000 -23.0687
v  29.3804 21.2185 -7.5326
v  26.1770 18.7726 -15.9707
v  20.7748 22.0451 -21.1141
v  21.7203 14.6196 -21.3342
v  15.7245 13.4305 -27.6031
v  -9.4572 32.6385 -2.6916
v  -4.6685 32.3846 -13.2439
v  -14.1256 32.6834 -14.5195
v  0.7488 23.0967 -20.8752
v  -10.7393 31.0097 -22.5248
v  -21.1275 30.7252 -22.4369
v  8.1730 13.8329 -28.1331
v  -1.0061 18.2085 -30.8913
v  -12.0521 24.8210 -31.8734
v  -24.2777 22.7111 -26.3390
v  -9.8349 34.2262 7.9094
v  -17.7267 31.0788 -3.4013
v  -11.8699 27.1367 5.8756
v  -24.1595 31.2768 -11.3461
v  -22.3188 28.2806 -1.5092
v  -12.4738 19.2986 6.1997
v  -28.3930 22.2213 -16.8907
v  -28.3531 22.7253 -6.9992
v  -21.9938 17.0676 1.1449
v  -17.1585 6.8142 8.3592
v  -0.2036 31.2979 10.2789
v  -1.9673 28.3288 14.8276
v  10.5744 22.8042 18.2102
v  -4.0680 20.8756 15.5770
v  4.4522 16.0692 23.3061
v  14.6150 13.6571 23.2664
v  -9.2151 9.7457 13.9161
v  -0.8318 5.1278 22.5039
v  7.5555 7.9483 28.8031
v  16.7195 2.5069 28.5399
v  11.9504 32.4798 8.2178
v  21.5291 22.2189 17.4846
v  23.0843 26.4197 6.9897
v  24.4463 9.6869 25.0009
v  32.6972 23.0038 11.8859
v  31.6076 20.2567 1.1821
v  33.5771 15.3411 -1.3810
v  31.1850 13.9187 -11.9820
v  35.8988 5.1046 1.3387
v  31.9352 9.9877 -9.9877
v  35.0834 7.1606 -19.0564
v  30.9091 -1.6512 9.7169
v  34.3912 -0.6545 -1.2887
v  31.1708 -1.9778 -11.1256
v  31.5648 -0.9845 -18.9198
v  21.3183 -8.6200 11.9840
v  24.1633 -13.3409 2.6264
v  25.3101 -12.2798 -5.6743
v  22.3096 -14.6378 -15.4092
v  25.4688 -8.9564 -22.7142
v  18.3433 8.6354 -29.3519
v  11.4489 5.8410 -30.7055
v  23.6834 2.7670 -29.4420
v  19.0564 -1.1005 -35.0834
v  9.9877 -5.1669 -31.9351
v  24.6107 -5.2801 -24.7983
v  18.8387 -7.5659 -31.2760
v  11.2744 -10.3782 -31.1413
v  2.2559 -10.6121 -34.6490
v  22.6779 -18.8395 -21.6348
v  14.8389 -18.0251 -21.9044
v  5.6432 -20.0893 -26.0652
v  -2.8817 -14.1927 -26.8471
v  -20.2635 15.3949 -29.7120
v  -27.6457 15.2418 -20.6462
v  -15.1104 4.2909 -31.7250
v  -23.9531 6.8984 -25.5422
v  -27.6863 8.7751 -14.1422
v  -10.4081 -2.8582 -31.0769
v  -21.2735 -0.9802 -23.3651
v  -25.6635 -0.8897 -13.7991
v  -31.3197 1.9912 -4.4869
v  -10.6967 -8.7119 -20.8193
v  -25.7253 -9.5337 -9.2074
v  -31.7167 -11.2648 -0.3052
v  -31.1161 -10.5188 3.7802
v  -23.6994 4.0399 7.9904
v  -15.5356 -1.2531 16.0775
v  -26.8709 -2.1920 6.2530
v  -21.6701 -8.9000 13.2516
v  -13.2516 -10.7374 21.6701
v  -29.0623 -6.8683 6.1142
v  -26.5534 -12.6783 15.3044
v  -21.6433 -16.5750 21.6548
v  -15.3693 -21.5084 25.8592
v  -30.0954 -16.1830 16.8477
v  -24.8105 -24.1275 23.7926
v  -23.8043 -24.1093 25.5157
v  -14.1301 -28.4545 29.2958
v  15.0064 -3.5087 32.7825
v  20.9705 -1.1266 27.5842
v  3.6888 -10.4484 34.0649
v  14.1422 -12.1476 27.6863
v  25.5422 -7.3488 23.9531
v  -5.4928 -20.1089 28.8389
v  4.0584 -19.5357 31.8657
v  13.6001 -17.0851 25.6514
v  23.3813 -8.0133 20.9912
v  -7.2810 -25.0255 30.8709
v  -0.0831 -28.9568 31.4907
v  9.8476 -23.4410 24.1547
v  29.4420 6.8600 -23.6834
v  24.8067 11.0427 -24.6975
v  29.2279 15.1140 -18.3129
v  -1.3387 -0.8353 -35.8988
v  -10.5625 12.8481 -33.1246
v  2.3039 5.7330 -33.1926
v  -34.0648 3.6888 -3.6888
v  -29.9531 9.4562 -4.8546
v  -32.1690 17.7486 -14.6915
v  -6.2530 -13.7043 26.8709
v  4.6971 -4.5099 29.8144
v  -8.2942 -5.7267 23.8029
v  31.7250 5.7185 15.1104
v  33.0636 14.5874 10.7906
v  29.2043 8.7494 20.3225
v  -10.4484 -34.0648 10.4484
v  -14.9008 -30.0141 1.5677
v  -3.6538 -33.7997 5.7026
v  -14.4257 -25.3199 -4.6077
v  -4.7339 -29.6842 -2.5023
v  2.1341 -27.0875 -1.8338
v  -6.6218 -19.8133 -17.0869
v  -2.1548 -22.8827 -14.8859
v  5.0124 -25.2430 -9.4375
v  14.3874 -20.2086 -11.3901
v  -19.9562 -26.3229 14.5260
v  -25.6857 -23.0969 12.2023
v  -23.7094 -24.6597 5.4042
v  -31.6402 -17.4848 7.2847
v  -30.1762 -17.4037 2.3516
v  -21.2617 -14.8264 -9.5204
v  -17.2668 -30.2549 18.7206
v  -17.5108 -30.1480 28.3923
v  -26.6570 -29.6365 22.7533
v  -14.8847 -29.5671 29.2481
v  -23.8122 -26.7187 23.8647
v  -30.1888 -22.7431 19.8202
v  -5.7769 -28.9124 16.3037
v  0.6368 -24.6638 18.5613
v  -10.1094 -33.0450 25.5691
v  14.3842 -20.0360 17.2466
v  1.3878 -31.8123 28.6642
v  -9.0092 -30.4414 29.2955
v  5.4092 -26.7999 9.3742
v  13.1330 -22.4655 -0.7783
v  12.4775 -21.8827 9.0586
# 162 vertices

vn 0.1205 0.9896 -0.0786
vn 0.0363 0.9993 -0.0041
vn 0.0329 0.9914 -0.1270
vn 0.4091 0.9064 -0.1053
vn 0.2319 0.9154 -0.3291
vn 0.1983 0.8459 -0.4951
vn 0.4791 0.8682 -0.1293
vn 0.3400 0.8778 -0.3375
vn 0.2673 0.7999 -0.5373
vn 0.2464 0.7172 -0.6519
vn 0.7504 0.5893 -0.2994
vn 0.6841 0.6695 -0.2894
vn 0.0155 0.5903 -0.8070
vn -0.2208 0.4193 -0.8806
vn 0.3145 0.5063 -0.8030
vn 0.0402 0.9986 -0.0339
vn 0.2443 0.9486 -0.2014
vn -0.0562 0.9959 -0.0704
vn 0.2699 0.7325 -0.6250
vn 0.2261 0.8786 -0.4208
vn -0.4366 0.7967 -0.4179
vn 0.2073 0.4657 -0.8603
vn 0.3792 0.4867 -0.7870
vn 0.0096 0.5122 -0.8588
vn -0.7125 0.2651 -0.6497
vn -0.3666 0.8071 0.4627
vn -0.3147 0.9100 0.2700
vn -0.6945 0.1351 0.7067
vn -0.5867 0.8087 0.0432
vn -0.5906 0.5422 0.5977
vn -0.6325 0.2067 0.7465
vn -0.8554 0.4286 -0.2908
vn -0.8603 0.3529 0.3678
vn -0.6112 0.2710 0.7436
vn -0.4484 0.4797 0.7542
vn 0.0484 0.8715 0.4880
vn -0.2464 0.5772 0.7785
vn 0.0824 0.6236 0.7774
vn -0.6509 0.2234 0.7256
vn -0.2572 0.4400 0.8604
vn 0.1167 0.5100 0.8522
vn -0.6282 0.3397 0.7000
vn -0.5646 0.3065 0.7663
vn -0.1964 0.3909 0.8992
vn 0.3145 0.3824 0.8688
vn 0.3121 0.9087 0.2772
vn 0.2209 0.6812 0.6980
vn 0.4001 0.9101 0.1076
vn 0.4220 0.2792 0.8625
vn 0.7445 0.6149 0.2602
vn 0.8268 0.5569 -0.0792
vn 0.9496 0.2891 -0.1211
vn 0.8996 0.4077 -0.1565
vn 0.9974 -0.0721 0.0020
vn 0.9958 0.0810 -0.0423
vn 0.9440 0.0890 -0.3177
vn 0.8228 -0.4931 0.2826
vn 0.9282 -0.3669 -0.0613
vn 0.9168 -0.3903 -0.0844
vn 0.8472 -0.4066 -0.3418
vn 0.7421 -0.6330 0.2206
vn 0.7105 -0.6855 0.1590
vn 0.7433 -0.6674 -0.0445
vn 0.5922 -0.7625 -0.2606
vn 0.8016 -0.4078 -0.4372
vn 0.2642 0.4927 -0.8292
vn 0.0573 0.3075 -0.9498
vn 0.6849 0.0927 -0.7227
vn 0.3223 -0.0092 -0.9466
vn 0.0594 -0.0172 -0.9981
vn 0.7360 -0.2399 -0.6330
vn 0.4773 -0.4779 -0.7374
vn 0.2467 -0.4702 -0.8474
vn -0.0575 -0.4249 -0.9034
vn 0.6896 -0.7033 -0.1728
vn 0.1073 -0.8045 -0.5841
vn 0.0607 -0.8537 -0.5172
vn -0.5514 -0.6220 -0.5559
vn -0.5478 0.0120 -0.8365
vn -0.8650 -0.0982 -0.4921
vn -0.4703 -0.2128 -0.8565
vn -0.7873 -0.2253 -0.5740
vn -0.8405 -0.3140 -0.4416
vn -0.5110 -0.5029 -0.6971
vn -0.6486 -0.5301 -0.5462
vn -0.8788 -0.2228 -0.4219
vn -0.7687 -0.4221 -0.4806
vn -0.5786 -0.5995 -0.5530
vn -0.6804 -0.4230 -0.5984
vn -0.9482 -0.1742 -0.2657
vn -0.9591 0.1978 0.2027
vn -0.6042 0.3817 0.6994
vn -0.5734 0.3709 0.7305
vn -0.7006 0.3162 0.6397
vn -0.4547 0.4994 0.7375
vn -0.5121 0.3704 0.7750
vn -0.8451 0.3250 0.4245
vn -0.3717 0.6465 0.6662
vn -0.4127 0.5177 0.7494
vn -0.2688 0.3992 0.8766
vn -0.7190 0.4228 0.5516
vn -0.7221 0.0885 0.6861
vn -0.6220 0.1118 0.7750
vn -0.2912 0.2532 0.9226
vn 0.3515 -0.0019 0.9362
vn 0.5467 -0.0101 0.8373
vn -0.1705 0.1403 0.9753
vn 0.4831 -0.3724 0.7924
vn 0.7865 -0.5040 0.3571
vn -0.3760 0.2803 0.8832
vn 0.2308 -0.1986 0.9525
vn 0.6396 -0.4723 0.6065
vn 0.7005 -0.6965 -0.1554
vn -0.2743 0.1655 0.9473
vn 0.1940 -0.3906 0.8999
vn 0.7386 -0.5846 0.3356
vn 0.6459 0.1430 -0.7499
vn 0.3851 0.5139 -0.7665
vn 0.6990 0.5923 -0.4006
vn -0.0178 -0.0138 -0.9997
vn -0.1221 0.0981 -0.9877
vn 0.2566 0.2371 -0.9370
vn -0.9927 -0.0947 0.0740
vn -0.7010 0.4039 0.5877
vn -0.9587 0.1592 -0.2356
vn -0.4916 0.2690 0.8282
vn -0.4298 0.3855 0.8165
vn -0.5075 0.3108 0.8037
vn 0.9228 -0.1391 0.3594
vn 0.9756 0.0740 0.2066
vn 0.8053 0.0556 0.5902
vn -0.1349 -0.9805 0.1431
vn -0.4369 -0.8218 -0.3656
vn 0.2743 -0.9594 -0.0655
vn -0.4397 -0.7056 -0.5557
vn 0.0207 -0.8870 -0.4613
vn 0.4339 -0.8865 -0.1606
vn -0.4681 -0.6658 -0.5810
vn -0.1344 -0.8783 -0.4588
vn 0.2652 -0.9306 -0.2525
vn 0.5428 -0.8359 0.0819
vn -0.4731 -0.8384 -0.2707
vn -0.5546 -0.8015 -0.2238
vn -0.6089 -0.7658 -0.2069
vn -0.9285 -0.3652 -0.0670
vn -0.7296 -0.5683 -0.3803
vn -0.5644 -0.5275 -0.6349
vn -0.2702 -0.9459 -0.1794
vn -0.4416 -0.4528 0.7746
vn -0.6731 -0.6699 0.3133
vn -0.2259 -0.2634 0.9378
vn -0.5876 -0.0784 0.8054
vn -0.9154 -0.1744 0.3628
vn 0.3920 -0.8976 0.2018
vn 0.3942 -0.9117 -0.1156
vn -0.0071 -0.9976 0.0692
vn 0.7159 -0.6671 0.2061
vn 0.4198 -0.8787 0.2272
vn -0.0947 -0.5812 0.8082
vn 0.5238 -0.8233 0.2187
vn 0.5352 -0.8443 -0.0269
vn 0.5497 -0.8268 0.1194
# 162 vertex normals

vt 0.6000 1.0000 33.0000
vt 0.5000 0.9119 33.0000
vt 0.7000 0.9119 33.0000
vt 0.5000 0.8238 33.0000
vt 0.6000 0.8524 33.0000
vt 0.7000 0.8238 33.0000
vt 0.5000 0.7357 33.0000
vt 0.5644 0.7654 33.0000
vt 0.6356 0.7654 33.0000
vt 0.7000 0.7357 33.0000
vt 0.5000 0.6476 33.0000
vt 0.5487 0.6688 33.0000
vt 0.6000 0.6762 33.0000
vt 0.6513 0.6688 33.0000
vt 0.7000 0.6476 33.0000
vt 0.8000 1.0000 33.0000
vt 0.9000 0.9119 33.0000
vt 0.8000 0.8524 33.0000
vt 0.9000 0.8238 33.0000
vt 0.7644 0.7654 33.0000
vt 0.8356 0.7654 33.0000
vt 0.9000 0.7357 33.0000
vt 0.7487 0.6688 33.0000
vt 0.8000 0.6762 33.0000
vt 0.8513 0.6688 33.0000
vt 0.9000 0.6476 33.0000
vt 0.0000 1.0000 33.0000
vt -0.1000 0.9119 33.0000
vt 0.1000 0.9119 33.0000
vt -0.1000 0.8238 33.0000
vt 0.0000 0.8524 33.0000
vt 0.1000 0.8238 33.0000
vt 0.9644 0.7654 33.0000
vt -0.0356 0.7654 33.0000
vt 0.0356 0.7654 33.0000
vt 0.1000 0.7357 33.0000
vt 0.9487 0.6688 33.0000
vt -0.0513 0.6688 33.0000
vt 0.0000 0.6762 33.0000
vt 0.0513 0.6688 33.0000
vt 0.1000 0.6476 33.0000
vt 0.2000 1.0000 33.0000
vt 0.3000 0.9119 33.0000
vt 0.2000 0.8524 33.0000
vt 0.3000 0.8238 33.0000
vt 0.1644 0.7654 33.0000
vt 0.2356 0.7654 33.0000
vt 0.3000 0.7357 33.0000
vt 0.1487 0.6688 33.0000
vt 0.2000 0.6762 33.0000
vt 0.2513 0.6688 33.0000
vt 0.3000 0.6476 33.0000
vt 0.4000 1.0000 33.0000
vt 0.4000 0.8524 33.0000
vt 0.3644 0.7654 33.0000
vt 0.4356 0.7654 33.0000
vt 0.3487 0.6688 33.0000
vt 0.4000 0.6762 33.0000
vt 0.4513 0.6688 33.0000
vt 0.4736 0.5747 33.0000
vt 0.5264 0.5747 33.0000
vt 0.4500 0.5000 33.0000
vt 0.5000 0.5000 33.0000
vt 0.5500 0.5000 33.0000
vt 0.4264 0.4253 33.0000
vt 0.4754 0.4179 33.0000
vt 0.5246 0.4179 33.0000
vt 0.5736 0.4253 33.0000
vt 0.4000 0.3524 33.0000
vt 0.4487 0.3312 33.0000
vt 0.5000 0.3238 33.0000
vt 0.5513 0.3312 33.0000
vt 0.6000 0.3524 33.0000
vt 0.6736 0.5747 33.0000
vt 0.7264 0.5747 33.0000
vt 0.6500 0.5000 33.0000
vt 0.7000 0.5000 33.0000
vt 0.7500 0.5000 33.0000
vt 0.6264 0.4253 33.0000
vt 0.6754 0.4179 33.0000
vt 0.7246 0.4179 33.0000
vt 0.7736 0.4253 33.0000
vt 0.6487 0.3312 33.0000
vt 0.7000 0.3238 33.0000
vt 0.7513 0.3312 33.0000
vt 0.8000 0.3524 33.0000
vt 0.8736 0.5747 33.0000
vt 0.9264 0.5747 33.0000
vt 0.8500 0.5000 33.0000
vt 0.9000 0.5000 33.0000
vt 0.9500 0.5000 33.0000
vt 0.8264 0.4253 33.0000
vt 0.8754 0.4179 33.0000
vt 0.9246 0.4179 33.0000
vt 0.9736 0.4253 33.0000
vt 0.8487 0.3312 33.0000
vt 0.9000 0.3238 33.0000
vt 0.9513 0.3312 33.0000
vt -0.0264 0.4253 33.0000
vt -0.0487 0.3312 33.0000
vt 0.0000 0.3524 33.0000
vt 0.0736 0.5747 33.0000
vt 0.1264 0.5747 33.0000
vt 0.0500 0.5000 33.0000
vt 0.1000 0.5000 33.0000
vt 0.1500 0.5000 33.0000
vt 0.0264 0.4253 33.0000
vt 0.0754 0.4179 33.0000
vt 0.1246 0.4179 33.0000
vt 0.1736 0.4253 33.0000
vt 0.0487 0.3312 33.0000
vt 0.1000 0.3238 33.0000
vt 0.1513 0.3312 33.0000
vt 0.2000 0.3524 33.0000
vt 0.2736 0.5747 33.0000
vt 0.3264 0.5747 33.0000
vt 0.2500 0.5000 33.0000
vt 0.3000 0.5000 33.0000
vt 0.3500 0.5000 33.0000
vt 0.2264 0.4253 33.0000
vt 0.2754 0.4179 33.0000
vt 0.3246 0.4179 33.0000
vt 0.3736 0.4253 33.0000
vt 0.2487 0.3312 33.0000
vt 0.3000 0.3238 33.0000
vt 0.3513 0.3312 33.0000
vt 0.6000 0.5000 33.0000
vt 0.6246 0.5821 33.0000
vt 0.5754 0.5821 33.0000
vt 0.8000 0.5000 33.0000
vt 0.8246 0.5821 33.0000
vt 0.7754 0.5821 33.0000
vt 0.0000 0.5000 33.0000
vt -0.0500 0.5000 33.0000
vt 0.0246 0.5821 33.0000
vt -0.0246 0.5821 33.0000
vt 0.9754 0.5821 33.0000
vt 0.2000 0.5000 33.0000
vt 0.2246 0.5821 33.0000
vt 0.1754 0.5821 33.0000
vt 0.4000 0.5000 33.0000
vt 0.4246 0.5821 33.0000
vt 0.3754 0.5821 33.0000
vt 0.7000 0.0000 33.0000
vt 0.8000 0.0881 33.0000
vt 0.6000 0.0881 33.0000
vt 0.8000 0.1762 33.0000
vt 0.7000 0.1476 33.0000
vt 0.6000 0.1762 33.0000
vt 0.8000 0.2643 33.0000
vt 0.7356 0.2346 33.0000
vt 0.6644 0.2346 33.0000
vt 0.6000 0.2643 33.0000
vt -0.1000 0.0000 33.0000
vt 0.0000 0.0881 33.0000
vt -0.2000 0.0881 33.0000
vt 0.0000 0.1762 33.0000
vt -0.1000 0.1476 33.0000
vt 0.9000 0.1476 33.0000
vt 0.0000 0.2643 33.0000
vt -0.0644 0.2346 33.0000
vt 0.9356 0.2346 33.0000
vt 0.8644 0.2346 33.0000
vt 0.1000 0.0000 33.0000
vt 0.2000 0.0881 33.0000
vt 0.2000 0.1762 33.0000
vt 0.1000 0.1476 33.0000
vt 0.2000 0.2643 33.0000
vt 0.1356 0.2346 33.0000
vt 0.0644 0.2346 33.0000
vt 0.3000 0.0000 33.0000
vt 0.4000 0.0881 33.0000
vt 0.4000 0.1762 33.0000
vt 0.3000 0.1476 33.0000
vt 0.4000 0.2643 33.0000
vt 0.3356 0.2346 33.0000
vt 0.2644 0.2346 33.0000
vt 0.5000 0.0000 33.0000
vt 0.5000 0.1476 33.0000
vt 0.5356 0.2346 33.0000
vt 0.4644 0.2346 33.0000
# 181 texture coords

o astre4
g astre4
usemtl wire_220189073
s 1
f 1/1/1 2/2/2 3/3/3 
f 2/2/2 4/4/4 5/5/5 
f 2/2/2 5/5/5 3/3/3 
f 3/3/3 5/5/5 6/6/6 
f 4/4/4 7/7/7 8/8/8 
f 4/4/4 8/8/8 5/5/5 
f 5/5/5 8/8/8 9/9/9 
f 5/5/5 9/9/9 6/6/6 
f 6/6/6 9/9/9 10/10/10 
f 7/7/7 11/11/11 12/12/12 
f 7/7/7 12/12/12 8/8/8 
f 8/8/8 12/12/12 13/13/13 
f 8/8/8 13/13/13 9/9/9 
f 9/9/9 13/13/13 14/14/14 
f 9/9/9 14/14/14 10/10/10 
f 10/10/10 14/14/14 15/15/15 
f 1/16/1 3/3/3 16/17/16 
f 3/3/3 6/6/6 17/18/17 
f 3/3/3 17/18/17 16/17/16 
f 16/17/16 17/18/17 18/19/18 
f 6/6/6 10/10/10 19/20/19 
f 6/6/6 19/20/19 17/18/17 
f 17/18/17 19/20/19 20/21/20 
f 17/18/17 20/21/20 18/19/18 
f 18/19/18 20/21/20 21/22/21 
f 10/10/10 15/15/15 22/23/22 
f 10/10/10 22/23/22 19/20/19 
f 19/20/19 22/23/22 23/24/23 
f 19/20/19 23/24/23 20/21/20 
f 20/21/20 23/24/23 24/25/24 
f 20/21/20 24/25/24 21/22/21 
f 21/22/21 24/25/24 25/26/25 
f 1/27/1 16/28/16 26/29/26 
f 16/28/16 18/30/18 27/31/27 
f 16/28/16 27/31/27 26/29/26 
f 26/29/26 27/31/27 28/32/28 
f 18/19/18 21/22/21 29/33/29 
f 18/30/18 29/34/29 27/31/27 
f 27/31/27 29/34/29 30/35/30 
f 27/31/27 30/35/30 28/32/28 
f 28/32/28 30/35/30 31/36/31 
f 21/22/21 25/26/25 32/37/32 
f 21/22/21 32/37/32 29/33/29 
f 29/34/29 32/38/32 33/39/33 
f 29/34/29 33/39/33 30/35/30 
f 30/35/30 33/39/33 34/40/34 
f 30/35/30 34/40/34 31/36/31 
f 31/36/31 34/40/34 35/41/35 
f 1/42/1 26/29/26 36/43/36 
f 26/29/26 28/32/28 37/44/37 
f 26/29/26 37/44/37 36/43/36 
f 36/43/36 37/44/37 38/45/38 
f 28/32/28 31/36/31 39/46/39 
f 28/32/28 39/46/39 37/44/37 
f 37/44/37 39/46/39 40/47/40 
f 37/44/37 40/47/40 38/45/38 
f 38/45/38 40/47/40 41/48/41 
f 31/36/31 35/41/35 42/49/42 
f 31/36/31 42/49/42 39/46/39 
f 39/46/39 42/49/42 43/50/43 
f 39/46/39 43/50/43 40/47/40 
f 40/47/40 43/50/43 44/51/44 
f 40/47/40 44/51/44 41/48/41 
f 41/48/41 44/51/44 45/52/45 
f 1/53/1 36/43/36 2/2/2 
f 36/43/36 38/45/38 46/54/46 
f 36/43/36 46/54/46 2/2/2 
f 2/2/2 46/54/46 4/4/4 
f 38/45/38 41/48/41 47/55/47 
f 38/45/38 47/55/47 46/54/46 
f 46/54/46 47/55/47 48/56/48 
f 46/54/46 48/56/48 4/4/4 
f 4/4/4 48/56/48 7/7/7 
f 41/48/41 45/52/45 49/57/49 
f 41/48/41 49/57/49 47/55/47 
f 47/55/47 49/57/49 50/58/50 
f 47/55/47 50/58/50 48/56/48 
f 48/56/48 50/58/50 51/59/51 
f 48/56/48 51/59/51 7/7/7 
f 7/7/7 51/59/51 11/11/11 
f 11/11/11 52/60/52 53/61/53 
f 52/60/52 54/62/54 55/63/55 
f 52/60/52 55/63/55 53/61/53 
f 53/61/53 55/63/55 56/64/56 
f 54/62/54 57/65/57 58/66/58 
f 54/62/54 58/66/58 55/63/55 
f 55/63/55 58/66/58 59/67/59 
f 55/63/55 59/67/59 56/64/56 
f 56/64/56 59/67/59 60/68/60 
f 57/65/57 61/69/61 62/70/62 
f 57/65/57 62/70/62 58/66/58 
f 58/66/58 62/70/62 63/71/63 
f 58/66/58 63/71/63 59/67/59 
f 59/67/59 63/71/63 64/72/64 
f 59/67/59 64/72/64 60/68/60 
f 60/68/60 64/72/64 65/73/65 
f 15/15/15 66/74/66 67/75/67 
f 66/74/66 68/76/68 69/77/69 
f 66/74/66 69/77/69 67/75/67 
f 67/75/67 69/77/69 70/78/70 
f 68/76/68 71/79/71 72/80/72 
f 68/76/68 72/80/72 69/77/69 
f 69/77/69 72/80/72 73/81/73 
f 69/77/69 73/81/73 70/78/70 
f 70/78/70 73/81/73 74/82/74 
f 71/79/71 65/73/65 75/83/75 
f 71/79/71 75/83/75 72/80/72 
f 72/80/72 75/83/75 76/84/76 
f 72/80/72 76/84/76 73/81/73 
f 73/81/73 76/84/76 77/85/77 
f 73/81/73 77/85/77 74/82/74 
f 74/82/74 77/85/77 78/86/78 
f 25/26/25 79/87/79 80/88/80 
f 79/87/79 81/89/81 82/90/82 
f 79/87/79 82/90/82 80/88/80 
f 80/88/80 82/90/82 83/91/83 
f 81/89/81 84/92/84 85/93/85 
f 81/89/81 85/93/85 82/90/82 
f 82/90/82 85/93/85 86/94/86 
f 82/90/82 86/94/86 83/91/83 
f 83/91/83 86/94/86 87/95/87 
f 84/92/84 78/86/78 88/96/88 
f 84/92/84 88/96/88 85/93/85 
f 85/93/85 88/96/88 89/97/89 
f 85/93/85 89/97/89 86/94/86 
f 86/94/86 89/97/89 90/98/90 
f 86/94/86 90/98/90 87/95/87 
f 87/99/87 90/100/90 91/101/91 
f 35/41/35 92/102/92 93/103/93 
f 92/102/92 94/104/94 95/105/95 
f 92/102/92 95/105/95 93/103/93 
f 93/103/93 95/105/95 96/106/96 
f 94/104/94 97/107/97 98/108/98 
f 94/104/94 98/108/98 95/105/95 
f 95/105/95 98/108/98 99/109/99 
f 95/105/95 99/109/99 96/106/96 
f 96/106/96 99/109/99 100/110/100 
f 97/107/97 91/101/91 101/111/101 
f 97/107/97 101/111/101 98/108/98 
f 98/108/98 101/111/101 102/112/102 
f 98/108/98 102/112/102 99/109/99 
f 99/109/99 102/112/102 103/113/103 
f 99/109/99 103/113/103 100/110/100 
f 100/110/100 103/113/103 104/114/104 
f 45/52/45 105/115/105 106/116/106 
f 105/115/105 107/117/107 108/118/108 
f 105/115/105 108/118/108 106/116/106 
f 106/116/106 108/118/108 109/119/109 
f 107/117/107 110/120/110 111/121/111 
f 107/117/107 111/121/111 108/118/108 
f 108/118/108 111/121/111 112/122/112 
f 108/118/108 112/122/112 109/119/109 
f 109/119/109 112/122/112 113/123/113 
f 110/120/110 104/114/104 114/124/114 
f 110/120/110 114/124/114 111/121/111 
f 111/121/111 114/124/114 115/125/115 
f 111/121/111 115/125/115 112/122/112 
f 112/122/112 115/125/115 116/126/116 
f 112/122/112 116/126/116 113/123/113 
f 113/123/113 116/126/116 61/69/61 
f 65/73/65 71/79/71 60/68/60 
f 71/79/71 68/76/68 117/127/117 
f 71/79/71 117/127/117 60/68/60 
f 60/68/60 117/127/117 56/64/56 
f 68/76/68 66/74/66 118/128/118 
f 68/76/68 118/128/118 117/127/117 
f 117/127/117 118/128/118 119/129/119 
f 117/127/117 119/129/119 56/64/56 
f 56/64/56 119/129/119 53/61/53 
f 66/74/66 15/15/15 14/14/14 
f 66/74/66 14/14/14 118/128/118 
f 118/128/118 14/14/14 13/13/13 
f 118/128/118 13/13/13 119/129/119 
f 119/129/119 13/13/13 12/12/12 
f 119/129/119 12/12/12 53/61/53 
f 53/61/53 12/12/12 11/11/11 
f 78/86/78 84/92/84 74/82/74 
f 84/92/84 81/89/81 120/130/120 
f 84/92/84 120/130/120 74/82/74 
f 74/82/74 120/130/120 70/78/70 
f 81/89/81 79/87/79 121/131/121 
f 81/89/81 121/131/121 120/130/120 
f 120/130/120 121/131/121 122/132/122 
f 120/130/120 122/132/122 70/78/70 
f 70/78/70 122/132/122 67/75/67 
f 79/87/79 25/26/25 24/25/24 
f 79/87/79 24/25/24 121/131/121 
f 121/131/121 24/25/24 23/24/23 
f 121/131/121 23/24/23 122/132/122 
f 122/132/122 23/24/23 22/23/22 
f 122/132/122 22/23/22 67/75/67 
f 67/75/67 22/23/22 15/15/15 
f 91/101/91 97/107/97 87/99/87 
f 97/107/97 94/104/94 123/133/123 
f 97/107/97 123/133/123 87/99/87 
f 87/99/87 123/133/123 83/134/83 
f 94/104/94 92/102/92 124/135/124 
f 94/104/94 124/135/124 123/133/123 
f 123/133/123 124/135/124 125/136/125 
f 123/133/123 125/136/125 83/134/83 
f 83/91/83 125/137/125 80/88/80 
f 92/102/92 35/41/35 34/40/34 
f 92/102/92 34/40/34 124/135/124 
f 124/135/124 34/40/34 33/39/33 
f 124/135/124 33/39/33 125/136/125 
f 125/136/125 33/39/33 32/38/32 
f 125/137/125 32/37/32 80/88/80 
f 80/88/80 32/37/32 25/26/25 
f 104/114/104 110/120/110 100/110/100 
f 110/120/110 107/117/107 126/138/126 
f 110/120/110 126/138/126 100/110/100 
f 100/110/100 126/138/126 96/106/96 
f 107/117/107 105/115/105 127/139/127 
f 107/117/107 127/139/127 126/138/126 
f 126/138/126 127/139/127 128/140/128 
f 126/138/126 128/140/128 96/106/96 
f 96/106/96 128/140/128 93/103/93 
f 105/115/105 45/52/45 44/51/44 
f 105/115/105 44/51/44 127/139/127 
f 127/139/127 44/51/44 43/50/43 
f 127/139/127 43/50/43 128/140/128 
f 128/140/128 43/50/43 42/49/42 
f 128/140/128 42/49/42 93/103/93 
f 93/103/93 42/49/42 35/41/35 
f 61/69/61 57/65/57 113/123/113 
f 57/65/57 54/62/54 129/141/129 
f 57/65/57 129/141/129 113/123/113 
f 113/123/113 129/141/129 109/119/109 
f 54/62/54 52/60/52 130/142/130 
f 54/62/54 130/142/130 129/141/129 
f 129/141/129 130/142/130 131/143/131 
f 129/141/129 131/143/131 109/119/109 
f 109/119/109 131/143/131 106/116/106 
f 52/60/52 11/11/11 51/59/51 
f 52/60/52 51/59/51 130/142/130 
f 130/142/130 51/59/51 50/58/50 
f 130/142/130 50/58/50 131/143/131 
f 131/143/131 50/58/50 49/57/49 
f 131/143/131 49/57/49 106/116/106 
f 106/116/106 49/57/49 45/52/45 
f 132/144/132 133/145/133 134/146/134 
f 133/145/133 135/147/135 136/148/136 
f 133/145/133 136/148/136 134/146/134 
f 134/146/134 136/148/136 137/149/137 
f 135/147/135 138/150/138 139/151/139 
f 135/147/135 139/151/139 136/148/136 
f 136/148/136 139/151/139 140/152/140 
f 136/148/136 140/152/140 137/149/137 
f 137/149/137 140/152/140 141/153/141 
f 138/150/138 78/86/78 77/85/77 
f 138/150/138 77/85/77 139/151/139 
f 139/151/139 77/85/77 76/84/76 
f 139/151/139 76/84/76 140/152/140 
f 140/152/140 76/84/76 75/83/75 
f 140/152/140 75/83/75 141/153/141 
f 141/153/141 75/83/75 65/73/65 
f 132/154/132 142/155/142 133/156/133 
f 142/155/142 143/157/143 144/158/144 
f 142/155/142 144/158/144 133/156/133 
f 133/145/133 144/159/144 135/147/135 
f 143/157/143 145/160/145 146/161/146 
f 143/157/143 146/161/146 144/158/144 
f 144/159/144 146/162/146 147/163/147 
f 144/159/144 147/163/147 135/147/135 
f 135/147/135 147/163/147 138/150/138 
f 145/160/145 91/101/91 90/100/90 
f 145/160/145 90/100/90 146/161/146 
f 146/162/146 90/98/90 89/97/89 
f 146/162/146 89/97/89 147/163/147 
f 147/163/147 89/97/89 88/96/88 
f 147/163/147 88/96/88 138/150/138 
f 138/150/138 88/96/88 78/86/78 
f 132/164/132 148/165/148 142/155/142 
f 148/165/148 149/166/149 150/167/150 
f 148/165/148 150/167/150 142/155/142 
f 142/155/142 150/167/150 143/157/143 
f 149/166/149 151/168/151 152/169/152 
f 149/166/149 152/169/152 150/167/150 
f 150/167/150 152/169/152 153/170/153 
f 150/167/150 153/170/153 143/157/143 
f 143/157/143 153/170/153 145/160/145 
f 151/168/151 104/114/104 103/113/103 
f 151/168/151 103/113/103 152/169/152 
f 152/169/152 103/113/103 102/112/102 
f 152/169/152 102/112/102 153/170/153 
f 153/170/153 102/112/102 101/111/101 
f 153/170/153 101/111/101 145/160/145 
f 145/160/145 101/111/101 91/101/91 
f 132/171/132 154/172/154 148/165/148 
f 154/172/154 155/173/155 156/174/156 
f 154/172/154 156/174/156 148/165/148 
f 148/165/148 156/174/156 149/166/149 
f 155/173/155 157/175/157 158/176/158 
f 155/173/155 158/176/158 156/174/156 
f 156/174/156 158/176/158 159/177/159 
f 156/174/156 159/177/159 149/166/149 
f 149/166/149 159/177/159 151/168/151 
f 157/175/157 61/69/61 116/126/116 
f 157/175/157 116/126/116 158/176/158 
f 158/176/158 116/126/116 115/125/115 
f 158/176/158 115/125/115 159/177/159 
f 159/177/159 115/125/115 114/124/114 
f 159/177/159 114/124/114 151/168/151 
f 151/168/151 114/124/114 104/114/104 
f 132/178/132 134/146/134 154/172/154 
f 134/146/134 137/149/137 160/179/160 
f 134/146/134 160/179/160 154/172/154 
f 154/172/154 160/179/160 155/173/155 
f 137/149/137 141/153/141 161/180/161 
f 137/149/137 161/180/161 160/179/160 
f 160/179/160 161/180/161 162/181/162 
f 160/179/160 162/181/162 155/173/155 
f 155/173/155 162/181/162 157/175/157 
f 141/153/141 65/73/65 64/72/64 
f 141/153/141 64/72/64 161/180/161 
f 161/180/161 64/72/64 63/71/63 
f 161/180/161 63/71/63 162/181/162 
f 162/181/162 63/71/63 62/70/62 
f 162/181/162 62/70/62 157/175/157 
f 157/175/157 62/70/62 61/69/61 
# 0 polygons - 320 triangles

